# Tiled2Unity generated file. Do not modify by hand.
# Wavefront file for 'TutorialLevel_mesh_0018.obj'

# Vertices (Count = 164)
v -55.11111 -7.111111 0
v -56.88889 -7.111111 0
v -56.88889 -5.333333 0
v -55.11111 -5.333333 0
v -56.88889 -7.111111 0
v -58.66667 -7.111111 0
v -58.66667 -5.333333 0
v -56.88889 -5.333333 0
v -58.66667 -7.111111 0
v -60.44445 -7.111111 0
v -60.44445 -5.333333 0
v -58.66667 -5.333333 0
v -55.11111 -8.888889 0
v -56.88889 -8.888889 0
v -56.88889 -7.111111 0
v -55.11111 -7.111111 0
v -56.88889 -8.888889 0
v -58.66667 -8.888889 0
v -58.66667 -7.111111 0
v -56.88889 -7.111111 0
v -58.66667 -8.888889 0
v -60.44445 -8.888889 0
v -60.44445 -7.111111 0
v -58.66667 -7.111111 0
v -87.11111 -40.88889 0
v -88.88889 -40.88889 0
v -88.88889 -39.11111 0
v -87.11111 -39.11111 0
v -87.11111 -42.66667 0
v -88.88889 -42.66667 0
v -88.88889 -40.88889 0
v -87.11111 -40.88889 0
v -87.11111 -44.44445 0
v -88.88889 -44.44445 0
v -88.88889 -42.66667 0
v -87.11111 -42.66667 0
v -87.11111 -46.22222 0
v -88.88889 -46.22222 0
v -88.88889 -44.44445 0
v -87.11111 -44.44445 0
v -131.5556 -46.22222 0
v -133.3333 -46.22222 0
v -133.3333 -44.44445 0
v -131.5556 -44.44445 0
v -87.11111 -48 0
v -88.88889 -48 0
v -88.88889 -46.22222 0
v -87.11111 -46.22222 0
v -131.5556 -48 0
v -133.3333 -48 0
v -133.3333 -46.22222 0
v -131.5556 -46.22222 0
v -87.11111 -49.77778 0
v -88.88889 -49.77778 0
v -88.88889 -48 0
v -87.11111 -48 0
v -131.5556 -49.77778 0
v -133.3333 -49.77778 0
v -133.3333 -48 0
v -131.5556 -48 0
v -87.11111 -51.55556 0
v -88.88889 -51.55556 0
v -88.88889 -49.77778 0
v -87.11111 -49.77778 0
v -131.5556 -51.55556 0
v -133.3333 -51.55556 0
v -133.3333 -49.77778 0
v -131.5556 -49.77778 0
v -131.5556 -53.33333 0
v -133.3333 -53.33333 0
v -133.3333 -51.55556 0
v -131.5556 -51.55556 0
v -136.8889 -53.33333 0
v -138.6667 -53.33333 0
v -138.6667 -51.55556 0
v -136.8889 -51.55556 0
v -138.6667 -53.33333 0
v -140.4444 -53.33333 0
v -140.4444 -51.55556 0
v -138.6667 -51.55556 0
v -140.4444 -53.33333 0
v -142.2222 -53.33333 0
v -142.2222 -51.55556 0
v -140.4444 -51.55556 0
v -131.5556 -55.11111 0
v -133.3333 -55.11111 0
v -133.3333 -53.33333 0
v -131.5556 -53.33333 0
v -136.8889 -55.11111 0
v -138.6667 -55.11111 0
v -138.6667 -53.33333 0
v -136.8889 -53.33333 0
v -138.6667 -55.11111 0
v -140.4444 -55.11111 0
v -140.4444 -53.33333 0
v -138.6667 -53.33333 0
v -140.4444 -55.11111 0
v -142.2222 -55.11111 0
v -142.2222 -53.33333 0
v -140.4444 -53.33333 0
v -142.2222 -55.11111 0
v -144 -55.11111 0
v -144 -53.33333 0
v -142.2222 -53.33333 0
v -144 -55.11111 0
v -145.7778 -55.11111 0
v -145.7778 -53.33333 0
v -144 -53.33333 0
v -145.7778 -55.11111 0
v -147.5556 -55.11111 0
v -147.5556 -53.33333 0
v -145.7778 -53.33333 0
v -147.5556 -55.11111 0
v -149.3333 -55.11111 0
v -149.3333 -53.33333 0
v -147.5556 -53.33333 0
v -16 -83.55556 0
v -17.77778 -83.55556 0
v -17.77778 -81.77778 0
v -16 -81.77778 0
v -17.77778 -83.55556 0
v -19.55556 -83.55556 0
v -19.55556 -81.77778 0
v -17.77778 -81.77778 0
v -19.55556 -83.55556 0
v -21.33333 -83.55556 0
v -21.33333 -81.77778 0
v -19.55556 -81.77778 0
v -231.1111 -83.55556 0
v -232.8889 -83.55556 0
v -232.8889 -81.77778 0
v -231.1111 -81.77778 0
v -232.8889 -83.55556 0
v -234.6667 -83.55556 0
v -234.6667 -81.77778 0
v -232.8889 -81.77778 0
v -234.6667 -83.55556 0
v -236.4444 -83.55556 0
v -236.4444 -81.77778 0
v -234.6667 -81.77778 0
v -16 -85.33334 0
v -17.77778 -85.33334 0
v -17.77778 -83.55556 0
v -16 -83.55556 0
v -17.77778 -85.33334 0
v -19.55556 -85.33334 0
v -19.55556 -83.55556 0
v -17.77778 -83.55556 0
v -19.55556 -85.33334 0
v -21.33333 -85.33334 0
v -21.33333 -83.55556 0
v -19.55556 -83.55556 0
v -231.1111 -85.33334 0
v -232.8889 -85.33334 0
v -232.8889 -83.55556 0
v -231.1111 -83.55556 0
v -232.8889 -85.33334 0
v -234.6667 -85.33334 0
v -234.6667 -83.55556 0
v -232.8889 -83.55556 0
v -234.6667 -85.33334 0
v -236.4444 -85.33334 0
v -236.4444 -83.55556 0
v -234.6667 -83.55556 0

# Texture cooridinates (Count = 30)
vt 0 0.08333331
vt 0.09090909 0.08333331
vt 0.09090909 0.1666667
vt 0 0.1666667
vt 0.1818182 0.08333331
vt 0.1818182 0.1666667
vt 0.2727273 0.08333331
vt 0.2727273 0.1666667
vt 0 0
vt 0.09090909 0
vt 0.1818182 0
vt 0.2727273 0
vt 0.6363636 0.8333333
vt 0.7272727 0.8333333
vt 0.7272727 0.9166667
vt 0.6363636 0.9166667
vt 0.6363636 0.6666666
vt 0.7272727 0.6666666
vt 0.7272727 0.75
vt 0.6363636 0.75
vt 0.6363636 0.08333331
vt 0.7272727 0.08333331
vt 0.7272727 0.1666667
vt 0.6363636 0.1666667
vt 0.8181818 0.08333331
vt 0.8181818 0.1666667
vt 0.9090909 0.08333331
vt 0.9090909 0.1666667
vt 1 0.08333331
vt 1 0.1666667

# Normal
vn 0 0 -1

# Mesh description
g TutorialLevel_mesh_0018

# Faces
f 1/1/1 2/2/1 3/3/1 4/4/1
f 5/2/1 6/5/1 7/6/1 8/3/1
f 9/5/1 10/7/1 11/8/1 12/6/1
f 13/9/1 14/10/1 15/2/1 16/1/1
f 17/10/1 18/11/1 19/5/1 20/2/1
f 21/11/1 22/12/1 23/7/1 24/5/1
f 25/13/1 26/14/1 27/15/1 28/16/1
f 29/17/1 30/18/1 31/19/1 32/20/1
f 33/17/1 34/18/1 35/19/1 36/20/1
f 37/17/1 38/18/1 39/19/1 40/20/1
f 41/13/1 42/14/1 43/15/1 44/16/1
f 45/17/1 46/18/1 47/19/1 48/20/1
f 49/17/1 50/18/1 51/19/1 52/20/1
f 53/17/1 54/18/1 55/19/1 56/20/1
f 57/17/1 58/18/1 59/19/1 60/20/1
f 61/20/1 62/19/1 63/14/1 64/13/1
f 65/17/1 66/18/1 67/19/1 68/20/1
f 69/17/1 70/18/1 71/19/1 72/20/1
f 73/1/1 74/2/1 75/3/1 76/4/1
f 77/2/1 78/5/1 79/6/1 80/3/1
f 81/5/1 82/7/1 83/8/1 84/6/1
f 85/17/1 86/18/1 87/19/1 88/20/1
f 89/9/1 90/10/1 91/2/1 92/1/1
f 93/10/1 94/11/1 95/5/1 96/2/1
f 97/11/1 98/12/1 99/7/1 100/5/1
f 101/21/1 102/22/1 103/23/1 104/24/1
f 105/22/1 106/25/1 107/26/1 108/23/1
f 109/25/1 110/27/1 111/28/1 112/26/1
f 113/27/1 114/29/1 115/30/1 116/28/1
f 117/1/1 118/2/1 119/3/1 120/4/1
f 121/2/1 122/5/1 123/6/1 124/3/1
f 125/5/1 126/7/1 127/8/1 128/6/1
f 129/1/1 130/2/1 131/3/1 132/4/1
f 133/2/1 134/5/1 135/6/1 136/3/1
f 137/5/1 138/7/1 139/8/1 140/6/1
f 141/9/1 142/10/1 143/2/1 144/1/1
f 145/10/1 146/11/1 147/5/1 148/2/1
f 149/11/1 150/12/1 151/7/1 152/5/1
f 153/9/1 154/10/1 155/2/1 156/1/1
f 157/10/1 158/11/1 159/5/1 160/2/1
f 161/11/1 162/12/1 163/7/1 164/5/1

