# Tiled2Unity generated file. Do not modify by hand.
# Wavefront file for 'TutorialLevel_mesh_0017.obj'

# Vertices (Count = 80)
v -44.44445 -7.111111 0
v -46.22222 -7.111111 0
v -46.22222 -5.333333 0
v -44.44445 -5.333333 0
v -46.22222 -7.111111 0
v -48 -7.111111 0
v -48 -5.333333 0
v -46.22222 -5.333333 0
v -44.44445 -8.888889 0
v -46.22222 -8.888889 0
v -46.22222 -7.111111 0
v -44.44445 -7.111111 0
v -46.22222 -8.888889 0
v -48 -8.888889 0
v -48 -7.111111 0
v -46.22222 -7.111111 0
v -74.66666 -10.66667 0
v -76.44444 -10.66667 0
v -76.44444 -8.888889 0
v -74.66666 -8.888889 0
v -76.44444 -10.66667 0
v -78.22222 -10.66667 0
v -78.22222 -8.888889 0
v -76.44444 -8.888889 0
v -101.3333 -37.33333 0
v -103.1111 -37.33333 0
v -103.1111 -35.55556 0
v -101.3333 -35.55556 0
v -103.1111 -37.33333 0
v -104.8889 -37.33333 0
v -104.8889 -35.55556 0
v -103.1111 -35.55556 0
v -124.4444 -46.22222 0
v -126.2222 -46.22222 0
v -126.2222 -44.44445 0
v -124.4444 -44.44445 0
v -126.2222 -46.22222 0
v -128 -46.22222 0
v -128 -44.44445 0
v -126.2222 -44.44445 0
v -87.11111 -53.33333 0
v -88.88889 -53.33333 0
v -88.88889 -51.55556 0
v -87.11111 -51.55556 0
v -88.88889 -53.33333 0
v -90.66666 -53.33333 0
v -90.66666 -51.55556 0
v -88.88889 -51.55556 0
v -90.66666 -53.33333 0
v -92.44444 -53.33333 0
v -92.44444 -51.55556 0
v -90.66666 -51.55556 0
v -87.11111 -55.11111 0
v -88.88889 -55.11111 0
v -88.88889 -53.33333 0
v -87.11111 -53.33333 0
v -88.88889 -55.11111 0
v -90.66666 -55.11111 0
v -90.66666 -53.33333 0
v -88.88889 -53.33333 0
v -90.66666 -55.11111 0
v -92.44444 -55.11111 0
v -92.44444 -53.33333 0
v -90.66666 -53.33333 0
v -1.777778 -85.33334 0
v -3.555556 -85.33334 0
v -3.555556 -83.55556 0
v -1.777778 -83.55556 0
v -3.555556 -85.33334 0
v -5.333333 -85.33334 0
v -5.333333 -83.55556 0
v -3.555556 -83.55556 0
v -5.333333 -85.33334 0
v -7.111111 -85.33334 0
v -7.111111 -83.55556 0
v -5.333333 -83.55556 0
v -7.111111 -85.33334 0
v -8.888889 -85.33334 0
v -8.888889 -83.55556 0
v -7.111111 -83.55556 0

# Texture cooridinates (Count = 31)
vt 0 0.4285714
vt 0.25 0.4285714
vt 0.25 0.5714285
vt 0 0.5714285
vt 0.5 0.4285714
vt 0.5 0.5714285
vt 0 0.2857143
vt 0.25 0.2857143
vt 0.5 0.2857143
vt 0 0.8571429
vt 0.25 0.8571429
vt 0.25 1
vt 0 1
vt 0.5 0.8571429
vt 0.5 1
vt 0 0.7142857
vt 0.25 0.7142857
vt 0.5 0.7142857
vt 0 0.1428571
vt 0.25 0.1428571
vt 0.5 0.1428571
vt 0.75 0.1428571
vt 0.75 0.2857143
vt 0 0
vt 0.25 0
vt 0.5 0
vt 0.75 0
vt 0.75 0.5714285
vt 0.75 0.7142857
vt 1 0.5714285
vt 1 0.7142857

# Normal
vn 0 0 -1

# Mesh description
g TutorialLevel_mesh_0017

# Faces
f 1/1/1 2/2/1 3/3/1 4/4/1
f 5/2/1 6/5/1 7/6/1 8/3/1
f 9/7/1 10/8/1 11/2/1 12/1/1
f 13/8/1 14/9/1 15/5/1 16/2/1
f 17/10/1 18/11/1 19/12/1 20/13/1
f 21/11/1 22/14/1 23/15/1 24/12/1
f 25/16/1 26/17/1 27/11/1 28/10/1
f 29/17/1 30/18/1 31/14/1 32/11/1
f 33/10/1 34/11/1 35/12/1 36/13/1
f 37/11/1 38/14/1 39/15/1 40/12/1
f 41/19/1 42/20/1 43/8/1 44/7/1
f 45/20/1 46/21/1 47/9/1 48/8/1
f 49/21/1 50/22/1 51/23/1 52/9/1
f 53/24/1 54/25/1 55/20/1 56/19/1
f 57/25/1 58/26/1 59/21/1 60/20/1
f 61/26/1 62/27/1 63/22/1 64/21/1
f 65/4/1 66/3/1 67/17/1 68/16/1
f 69/3/1 70/6/1 71/18/1 72/17/1
f 73/6/1 74/28/1 75/29/1 76/18/1
f 77/28/1 78/30/1 79/31/1 80/29/1

