# Tiled2Unity generated file. Do not modify by hand.
# Wavefront file for 'TutorialLevel_mesh_0019.obj'

# Vertices (Count = 112)
v -65.77778 -8.888889 0
v -67.55556 -8.888889 0
v -67.55556 -7.111111 0
v -65.77778 -7.111111 0
v -67.55556 -8.888889 0
v -69.33334 -8.888889 0
v -69.33334 -7.111111 0
v -67.55556 -7.111111 0
v -88.88889 -8.888889 0
v -90.66666 -8.888889 0
v -90.66666 -7.111111 0
v -88.88889 -7.111111 0
v -65.77778 -10.66667 0
v -67.55556 -10.66667 0
v -67.55556 -8.888889 0
v -65.77778 -8.888889 0
v -67.55556 -10.66667 0
v -69.33334 -10.66667 0
v -69.33334 -8.888889 0
v -67.55556 -8.888889 0
v -88.88889 -10.66667 0
v -90.66666 -10.66667 0
v -90.66666 -8.888889 0
v -88.88889 -8.888889 0
v -99.55556 -35.55556 0
v -101.3333 -35.55556 0
v -101.3333 -33.77778 0
v -99.55556 -33.77778 0
v -99.55556 -37.33333 0
v -101.3333 -37.33333 0
v -101.3333 -35.55556 0
v -99.55556 -35.55556 0
v -78.22222 -56.88889 0
v -80 -56.88889 0
v -80 -55.11111 0
v -78.22222 -55.11111 0
v -78.22222 -58.66667 0
v -80 -58.66667 0
v -80 -56.88889 0
v -78.22222 -56.88889 0
v -170.6667 -58.66667 0
v -172.4444 -58.66667 0
v -172.4444 -56.88889 0
v -170.6667 -56.88889 0
v -172.4444 -58.66667 0
v -174.2222 -58.66667 0
v -174.2222 -56.88889 0
v -172.4444 -56.88889 0
v -170.6667 -60.44445 0
v -172.4444 -60.44445 0
v -172.4444 -58.66667 0
v -170.6667 -58.66667 0
v -172.4444 -60.44445 0
v -174.2222 -60.44445 0
v -174.2222 -58.66667 0
v -172.4444 -58.66667 0
v -48 -62.22222 0
v -49.77778 -62.22222 0
v -49.77778 -60.44445 0
v -48 -60.44445 0
v -49.77778 -62.22222 0
v -51.55556 -62.22222 0
v -51.55556 -60.44445 0
v -49.77778 -60.44445 0
v -48 -64 0
v -49.77778 -64 0
v -49.77778 -62.22222 0
v -48 -62.22222 0
v -49.77778 -64 0
v -51.55556 -64 0
v -51.55556 -62.22222 0
v -49.77778 -62.22222 0
v -136.8889 -83.55556 0
v -138.6667 -83.55556 0
v -138.6667 -81.77778 0
v -136.8889 -81.77778 0
v -138.6667 -83.55556 0
v -140.4444 -83.55556 0
v -140.4444 -81.77778 0
v -138.6667 -81.77778 0
v -140.4444 -83.55556 0
v -142.2222 -83.55556 0
v -142.2222 -81.77778 0
v -140.4444 -81.77778 0
v -202.6667 -83.55556 0
v -204.4444 -83.55556 0
v -204.4444 -81.77778 0
v -202.6667 -81.77778 0
v -204.4444 -83.55556 0
v -206.2222 -83.55556 0
v -206.2222 -81.77778 0
v -204.4444 -81.77778 0
v -136.8889 -85.33334 0
v -138.6667 -85.33334 0
v -138.6667 -83.55556 0
v -136.8889 -83.55556 0
v -138.6667 -85.33334 0
v -140.4444 -85.33334 0
v -140.4444 -83.55556 0
v -138.6667 -83.55556 0
v -140.4444 -85.33334 0
v -142.2222 -85.33334 0
v -142.2222 -83.55556 0
v -140.4444 -83.55556 0
v -202.6667 -85.33334 0
v -204.4444 -85.33334 0
v -204.4444 -83.55556 0
v -202.6667 -83.55556 0
v -204.4444 -85.33334 0
v -206.2222 -85.33334 0
v -206.2222 -83.55556 0
v -204.4444 -83.55556 0

# Texture cooridinates (Count = 43)
vt 0.125 0.5
vt 0.1875 0.5
vt 0.1875 0.6666666
vt 0.125 0.6666666
vt 0.25 0.5
vt 0.25 0.6666666
vt 0.0625 0.1666667
vt 0.125 0.1666667
vt 0.125 0.3333333
vt 0.0625 0.3333333
vt 0.1875 0.3333333
vt 0.25 0.3333333
vt 0.0625 0
vt 0.125 0
vt 0.1875 0.1666667
vt 0.1875 0
vt 0 0.1666667
vt 0 0.3333333
vt 0 0
vt 0.25 0.8333333
vt 0.3125 0.8333333
vt 0.3125 1
vt 0.25 1
vt 0.375 0.8333333
vt 0.375 1
vt 0.3125 0.6666666
vt 0.375 0.6666666
vt 0 0.5
vt 0.0625 0.5
vt 0.0625 0.6666666
vt 0 0.6666666
vt 0.5625 0.8333333
vt 0.625 0.8333333
vt 0.625 1
vt 0.5625 1
vt 0.6875 0.8333333
vt 0.6875 1
vt 0.75 0.8333333
vt 0.75 1
vt 0.5625 0.6666666
vt 0.625 0.6666666
vt 0.6875 0.6666666
vt 0.75 0.6666666

# Normal
vn 0 0 -1

# Mesh description
g TutorialLevel_mesh_0019

# Faces
f 1/1/1 2/2/1 3/3/1 4/4/1
f 5/2/1 6/5/1 7/6/1 8/3/1
f 9/7/1 10/8/1 11/9/1 12/10/1
f 13/9/1 14/11/1 15/2/1 16/1/1
f 17/11/1 18/12/1 19/5/1 20/2/1
f 21/13/1 22/14/1 23/8/1 24/7/1
f 25/8/1 26/15/1 27/11/1 28/9/1
f 29/14/1 30/16/1 31/15/1 32/8/1
f 33/17/1 34/7/1 35/10/1 36/18/1
f 37/19/1 38/13/1 39/7/1 40/17/1
f 41/20/1 42/21/1 43/22/1 44/23/1
f 45/21/1 46/24/1 47/25/1 48/22/1
f 49/6/1 50/26/1 51/21/1 52/20/1
f 53/26/1 54/27/1 55/24/1 56/21/1
f 57/28/1 58/29/1 59/30/1 60/31/1
f 61/29/1 62/1/1 63/4/1 64/30/1
f 65/18/1 66/10/1 67/29/1 68/28/1
f 69/10/1 70/9/1 71/1/1 72/29/1
f 73/32/1 74/33/1 75/34/1 76/35/1
f 77/33/1 78/36/1 79/37/1 80/34/1
f 81/36/1 82/38/1 83/39/1 84/37/1
f 85/28/1 86/29/1 87/30/1 88/31/1
f 89/29/1 90/1/1 91/4/1 92/30/1
f 93/40/1 94/41/1 95/33/1 96/32/1
f 97/41/1 98/42/1 99/36/1 100/33/1
f 101/42/1 102/43/1 103/38/1 104/36/1
f 105/18/1 106/10/1 107/29/1 108/28/1
f 109/10/1 110/9/1 111/1/1 112/29/1

