# Tiled2Unity generated file. Do not modify by hand.
# Wavefront file for 'TutorialLevel_mesh_0002.obj'

# Vertices (Count = 400)
v -140.4444 -1.777778 0
v -142.2222 -1.777778 0
v -142.2222 0 0
v -140.4444 0 0
v -142.2222 -1.777778 0
v -144 -1.777778 0
v -144 0 0
v -142.2222 0 0
v -206.2222 -7.111111 0
v -208 -7.111111 0
v -208 -5.333333 0
v -206.2222 -5.333333 0
v -208 -7.111111 0
v -209.7778 -7.111111 0
v -209.7778 -5.333333 0
v -208 -5.333333 0
v -186.6667 -8.888889 0
v -188.4444 -8.888889 0
v -188.4444 -7.111111 0
v -186.6667 -7.111111 0
v -188.4444 -8.888889 0
v -190.2222 -8.888889 0
v -190.2222 -7.111111 0
v -188.4444 -7.111111 0
v -206.2222 -8.888889 0
v -208 -8.888889 0
v -208 -7.111111 0
v -206.2222 -7.111111 0
v -208 -8.888889 0
v -209.7778 -8.888889 0
v -209.7778 -7.111111 0
v -208 -7.111111 0
v -179.5556 -10.66667 0
v -181.3333 -10.66667 0
v -181.3333 -8.888889 0
v -179.5556 -8.888889 0
v -181.3333 -10.66667 0
v -183.1111 -10.66667 0
v -183.1111 -8.888889 0
v -181.3333 -8.888889 0
v -186.6667 -10.66667 0
v -188.4444 -10.66667 0
v -188.4444 -8.888889 0
v -186.6667 -8.888889 0
v -188.4444 -10.66667 0
v -190.2222 -10.66667 0
v -190.2222 -8.888889 0
v -188.4444 -8.888889 0
v -181.3333 -12.44444 0
v -183.1111 -12.44444 0
v -183.1111 -10.66667 0
v -181.3333 -10.66667 0
v -184.8889 -14.22222 0
v -186.6667 -14.22222 0
v -186.6667 -12.44444 0
v -184.8889 -12.44444 0
v -186.6667 -14.22222 0
v -188.4444 -14.22222 0
v -188.4444 -12.44444 0
v -186.6667 -12.44444 0
v -206.2222 -14.22222 0
v -208 -14.22222 0
v -208 -12.44444 0
v -206.2222 -12.44444 0
v -208 -14.22222 0
v -209.7778 -14.22222 0
v -209.7778 -12.44444 0
v -208 -12.44444 0
v -184.8889 -16 0
v -186.6667 -16 0
v -186.6667 -14.22222 0
v -184.8889 -14.22222 0
v -186.6667 -16 0
v -188.4444 -16 0
v -188.4444 -14.22222 0
v -186.6667 -14.22222 0
v -206.2222 -16 0
v -208 -16 0
v -208 -14.22222 0
v -206.2222 -14.22222 0
v -208 -16 0
v -209.7778 -16 0
v -209.7778 -14.22222 0
v -208 -14.22222 0
v -124.4444 -17.77778 0
v -126.2222 -17.77778 0
v -126.2222 -16 0
v -124.4444 -16 0
v -126.2222 -17.77778 0
v -128 -17.77778 0
v -128 -16 0
v -126.2222 -16 0
v -172.4444 -17.77778 0
v -174.2222 -17.77778 0
v -174.2222 -16 0
v -172.4444 -16 0
v -174.2222 -17.77778 0
v -176 -17.77778 0
v -176 -16 0
v -174.2222 -16 0
v -124.4444 -19.55556 0
v -126.2222 -19.55556 0
v -126.2222 -17.77778 0
v -124.4444 -17.77778 0
v -126.2222 -19.55556 0
v -128 -19.55556 0
v -128 -17.77778 0
v -126.2222 -17.77778 0
v -147.5556 -19.55556 0
v -149.3333 -19.55556 0
v -149.3333 -17.77778 0
v -147.5556 -17.77778 0
v -149.3333 -19.55556 0
v -151.1111 -19.55556 0
v -151.1111 -17.77778 0
v -149.3333 -17.77778 0
v -172.4444 -19.55556 0
v -174.2222 -19.55556 0
v -174.2222 -17.77778 0
v -172.4444 -17.77778 0
v -174.2222 -19.55556 0
v -176 -19.55556 0
v -176 -17.77778 0
v -174.2222 -17.77778 0
v -131.5556 -21.33333 0
v -133.3333 -21.33333 0
v -133.3333 -19.55556 0
v -131.5556 -19.55556 0
v -133.3333 -21.33333 0
v -135.1111 -21.33333 0
v -135.1111 -19.55556 0
v -133.3333 -19.55556 0
v -147.5556 -21.33333 0
v -149.3333 -21.33333 0
v -149.3333 -19.55556 0
v -147.5556 -19.55556 0
v -149.3333 -21.33333 0
v -151.1111 -21.33333 0
v -151.1111 -19.55556 0
v -149.3333 -19.55556 0
v -131.5556 -23.11111 0
v -133.3333 -23.11111 0
v -133.3333 -21.33333 0
v -131.5556 -21.33333 0
v -133.3333 -23.11111 0
v -135.1111 -23.11111 0
v -135.1111 -21.33333 0
v -133.3333 -21.33333 0
v -204.4444 -26.66667 0
v -206.2222 -26.66667 0
v -206.2222 -24.88889 0
v -204.4444 -24.88889 0
v -206.2222 -26.66667 0
v -208 -26.66667 0
v -208 -24.88889 0
v -206.2222 -24.88889 0
v -186.6667 -28.44444 0
v -188.4444 -28.44444 0
v -188.4444 -26.66667 0
v -186.6667 -26.66667 0
v -188.4444 -28.44444 0
v -190.2222 -28.44444 0
v -190.2222 -26.66667 0
v -188.4444 -26.66667 0
v -204.4444 -28.44444 0
v -206.2222 -28.44444 0
v -206.2222 -26.66667 0
v -204.4444 -26.66667 0
v -206.2222 -28.44444 0
v -208 -28.44444 0
v -208 -26.66667 0
v -206.2222 -26.66667 0
v -186.6667 -30.22222 0
v -188.4444 -30.22222 0
v -188.4444 -28.44444 0
v -186.6667 -28.44444 0
v -188.4444 -30.22222 0
v -190.2222 -30.22222 0
v -190.2222 -28.44444 0
v -188.4444 -28.44444 0
v -186.6667 -33.77778 0
v -188.4444 -33.77778 0
v -188.4444 -32 0
v -186.6667 -32 0
v -188.4444 -33.77778 0
v -190.2222 -33.77778 0
v -190.2222 -32 0
v -188.4444 -32 0
v -124.4444 -35.55556 0
v -126.2222 -35.55556 0
v -126.2222 -33.77778 0
v -124.4444 -33.77778 0
v -126.2222 -35.55556 0
v -128 -35.55556 0
v -128 -33.77778 0
v -126.2222 -33.77778 0
v -186.6667 -35.55556 0
v -188.4444 -35.55556 0
v -188.4444 -33.77778 0
v -186.6667 -33.77778 0
v -188.4444 -35.55556 0
v -190.2222 -35.55556 0
v -190.2222 -33.77778 0
v -188.4444 -33.77778 0
v -124.4444 -37.33333 0
v -126.2222 -37.33333 0
v -126.2222 -35.55556 0
v -124.4444 -35.55556 0
v -126.2222 -37.33333 0
v -128 -37.33333 0
v -128 -35.55556 0
v -126.2222 -35.55556 0
v -117.3333 -40.88889 0
v -119.1111 -40.88889 0
v -119.1111 -39.11111 0
v -117.3333 -39.11111 0
v -119.1111 -40.88889 0
v -120.8889 -40.88889 0
v -120.8889 -39.11111 0
v -119.1111 -39.11111 0
v -117.3333 -42.66667 0
v -119.1111 -42.66667 0
v -119.1111 -40.88889 0
v -117.3333 -40.88889 0
v -119.1111 -42.66667 0
v -120.8889 -42.66667 0
v -120.8889 -40.88889 0
v -119.1111 -40.88889 0
v -227.5556 -46.22222 0
v -229.3333 -46.22222 0
v -229.3333 -44.44445 0
v -227.5556 -44.44445 0
v -229.3333 -46.22222 0
v -231.1111 -46.22222 0
v -231.1111 -44.44445 0
v -229.3333 -44.44445 0
v -149.3333 -48 0
v -151.1111 -48 0
v -151.1111 -46.22222 0
v -149.3333 -46.22222 0
v -151.1111 -48 0
v -152.8889 -48 0
v -152.8889 -46.22222 0
v -151.1111 -46.22222 0
v -227.5556 -48 0
v -229.3333 -48 0
v -229.3333 -46.22222 0
v -227.5556 -46.22222 0
v -229.3333 -48 0
v -231.1111 -48 0
v -231.1111 -46.22222 0
v -229.3333 -46.22222 0
v -149.3333 -49.77778 0
v -151.1111 -49.77778 0
v -151.1111 -48 0
v -149.3333 -48 0
v -151.1111 -49.77778 0
v -152.8889 -49.77778 0
v -152.8889 -48 0
v -151.1111 -48 0
v -129.7778 -53.33333 0
v -131.5556 -53.33333 0
v -131.5556 -51.55556 0
v -129.7778 -51.55556 0
v -131.5556 -53.33333 0
v -133.3333 -53.33333 0
v -133.3333 -51.55556 0
v -131.5556 -51.55556 0
v -197.3333 -53.33333 0
v -199.1111 -53.33333 0
v -199.1111 -51.55556 0
v -197.3333 -51.55556 0
v -199.1111 -53.33333 0
v -200.8889 -53.33333 0
v -200.8889 -51.55556 0
v -199.1111 -51.55556 0
v -117.3333 -55.11111 0
v -119.1111 -55.11111 0
v -119.1111 -53.33333 0
v -117.3333 -53.33333 0
v -119.1111 -55.11111 0
v -120.8889 -55.11111 0
v -120.8889 -53.33333 0
v -119.1111 -53.33333 0
v -129.7778 -55.11111 0
v -131.5556 -55.11111 0
v -131.5556 -53.33333 0
v -129.7778 -53.33333 0
v -131.5556 -55.11111 0
v -133.3333 -55.11111 0
v -133.3333 -53.33333 0
v -131.5556 -53.33333 0
v -197.3333 -55.11111 0
v -199.1111 -55.11111 0
v -199.1111 -53.33333 0
v -197.3333 -53.33333 0
v -199.1111 -55.11111 0
v -200.8889 -55.11111 0
v -200.8889 -53.33333 0
v -199.1111 -53.33333 0
v -200.8889 -55.11111 0
v -202.6667 -55.11111 0
v -202.6667 -53.33333 0
v -200.8889 -53.33333 0
v -218.6667 -55.11111 0
v -220.4444 -55.11111 0
v -220.4444 -53.33333 0
v -218.6667 -53.33333 0
v -220.4444 -55.11111 0
v -222.2222 -55.11111 0
v -222.2222 -53.33333 0
v -220.4444 -53.33333 0
v -117.3333 -56.88889 0
v -119.1111 -56.88889 0
v -119.1111 -55.11111 0
v -117.3333 -55.11111 0
v -119.1111 -56.88889 0
v -120.8889 -56.88889 0
v -120.8889 -55.11111 0
v -119.1111 -55.11111 0
v -193.7778 -56.88889 0
v -195.5556 -56.88889 0
v -195.5556 -55.11111 0
v -193.7778 -55.11111 0
v -195.5556 -56.88889 0
v -197.3333 -56.88889 0
v -197.3333 -55.11111 0
v -195.5556 -55.11111 0
v -199.1111 -56.88889 0
v -200.8889 -56.88889 0
v -200.8889 -55.11111 0
v -199.1111 -55.11111 0
v -200.8889 -56.88889 0
v -202.6667 -56.88889 0
v -202.6667 -55.11111 0
v -200.8889 -55.11111 0
v -218.6667 -56.88889 0
v -220.4444 -56.88889 0
v -220.4444 -55.11111 0
v -218.6667 -55.11111 0
v -220.4444 -56.88889 0
v -222.2222 -56.88889 0
v -222.2222 -55.11111 0
v -220.4444 -55.11111 0
v -193.7778 -58.66667 0
v -195.5556 -58.66667 0
v -195.5556 -56.88889 0
v -193.7778 -56.88889 0
v -195.5556 -58.66667 0
v -197.3333 -58.66667 0
v -197.3333 -56.88889 0
v -195.5556 -56.88889 0
v -202.6667 -58.66667 0
v -204.4444 -58.66667 0
v -204.4444 -56.88889 0
v -202.6667 -56.88889 0
v -204.4444 -58.66667 0
v -206.2222 -58.66667 0
v -206.2222 -56.88889 0
v -204.4444 -56.88889 0
v -145.7778 -60.44445 0
v -147.5556 -60.44445 0
v -147.5556 -58.66667 0
v -145.7778 -58.66667 0
v -147.5556 -60.44445 0
v -149.3333 -60.44445 0
v -149.3333 -58.66667 0
v -147.5556 -58.66667 0
v -202.6667 -60.44445 0
v -204.4444 -60.44445 0
v -204.4444 -58.66667 0
v -202.6667 -58.66667 0
v -204.4444 -60.44445 0
v -206.2222 -60.44445 0
v -206.2222 -58.66667 0
v -204.4444 -58.66667 0
v -145.7778 -62.22222 0
v -147.5556 -62.22222 0
v -147.5556 -60.44445 0
v -145.7778 -60.44445 0
v -147.5556 -62.22222 0
v -149.3333 -62.22222 0
v -149.3333 -60.44445 0
v -147.5556 -60.44445 0
v -206.2222 -69.33334 0
v -208 -69.33334 0
v -208 -67.55556 0
v -206.2222 -67.55556 0
v -208 -69.33334 0
v -209.7778 -69.33334 0
v -209.7778 -67.55556 0
v -208 -67.55556 0
v -206.2222 -71.11111 0
v -208 -71.11111 0
v -208 -69.33334 0
v -206.2222 -69.33334 0
v -208 -71.11111 0
v -209.7778 -71.11111 0
v -209.7778 -69.33334 0
v -208 -69.33334 0

# Texture cooridinates (Count = 39)
vt 0.7333333 0
vt 0.8 0
vt 0.8 0.5
vt 0.7333333 0.5
vt 0.8666667 0
vt 0.8666667 0.5
vt 0.3333333 0.5
vt 0.4 0.5
vt 0.4 1
vt 0.3333333 1
vt 0.4666667 0.5
vt 0.4666667 1
vt 0.9333333 0.5
vt 0.9333333 1
vt 0.8666667 1
vt 1 0.5
vt 1 1
vt 0.3333333 0
vt 0.4 0
vt 0.4666667 0
vt 0.5333334 0.5
vt 0.5333334 1
vt 0.6 0.5
vt 0.6 1
vt 0.9333333 0
vt 1 0
vt 0.5333334 0
vt 0.6 0
vt 0.8 1
vt 0.7333333 1
vt 0.6666667 0.5
vt 0.6666667 1
vt 0.6666667 0
vt 0.2 0.5
vt 0.2666667 0.5
vt 0.2666667 1
vt 0.2 1
vt 0.2 0
vt 0.2666667 0

# Normal
vn 0 0 -1

# Mesh description
g TutorialLevel_mesh_0002

# Faces
f 1/1/1 2/2/1 3/3/1 4/4/1
f 5/2/1 6/5/1 7/6/1 8/3/1
f 9/7/1 10/8/1 11/9/1 12/10/1
f 13/8/1 14/11/1 15/12/1 16/9/1
f 17/6/1 18/13/1 19/14/1 20/15/1
f 21/13/1 22/16/1 23/17/1 24/14/1
f 25/18/1 26/19/1 27/8/1 28/7/1
f 29/19/1 30/20/1 31/11/1 32/8/1
f 33/11/1 34/21/1 35/22/1 36/12/1
f 37/21/1 38/23/1 39/24/1 40/22/1
f 41/5/1 42/25/1 43/13/1 44/6/1
f 45/25/1 46/26/1 47/16/1 48/13/1
f 49/27/1 50/28/1 51/23/1 52/21/1
f 53/4/1 54/3/1 55/29/1 56/30/1
f 57/3/1 58/6/1 59/15/1 60/29/1
f 61/23/1 62/31/1 63/32/1 64/24/1
f 65/31/1 66/4/1 67/30/1 68/32/1
f 69/1/1 70/2/1 71/3/1 72/4/1
f 73/2/1 74/5/1 75/6/1 76/3/1
f 77/28/1 78/33/1 79/31/1 80/23/1
f 81/33/1 82/1/1 83/4/1 84/31/1
f 85/23/1 86/31/1 87/32/1 88/24/1
f 89/31/1 90/4/1 91/30/1 92/32/1
f 93/11/1 94/21/1 95/22/1 96/12/1
f 97/21/1 98/23/1 99/24/1 100/22/1
f 101/28/1 102/33/1 103/31/1 104/23/1
f 105/33/1 106/1/1 107/4/1 108/31/1
f 109/6/1 110/13/1 111/14/1 112/15/1
f 113/13/1 114/16/1 115/17/1 116/14/1
f 117/20/1 118/27/1 119/21/1 120/11/1
f 121/27/1 122/28/1 123/23/1 124/21/1
f 125/6/1 126/13/1 127/14/1 128/15/1
f 129/13/1 130/16/1 131/17/1 132/14/1
f 133/5/1 134/25/1 135/13/1 136/6/1
f 137/25/1 138/26/1 139/16/1 140/13/1
f 141/5/1 142/25/1 143/13/1 144/6/1
f 145/25/1 146/26/1 147/16/1 148/13/1
f 149/11/1 150/21/1 151/22/1 152/12/1
f 153/21/1 154/23/1 155/24/1 156/22/1
f 157/34/1 158/35/1 159/36/1 160/37/1
f 161/35/1 162/7/1 163/10/1 164/36/1
f 165/20/1 166/27/1 167/21/1 168/11/1
f 169/27/1 170/28/1 171/23/1 172/21/1
f 173/38/1 174/39/1 175/35/1 176/34/1
f 177/39/1 178/18/1 179/7/1 180/35/1
f 181/4/1 182/3/1 183/29/1 184/30/1
f 185/3/1 186/6/1 187/15/1 188/29/1
f 189/11/1 190/21/1 191/22/1 192/12/1
f 193/21/1 194/23/1 195/24/1 196/22/1
f 197/1/1 198/2/1 199/3/1 200/4/1
f 201/2/1 202/5/1 203/6/1 204/3/1
f 205/20/1 206/27/1 207/21/1 208/11/1
f 209/27/1 210/28/1 211/23/1 212/21/1
f 213/6/1 214/13/1 215/25/1 216/5/1
f 217/13/1 218/16/1 219/26/1 220/25/1
f 221/15/1 222/14/1 223/13/1 224/6/1
f 225/14/1 226/17/1 227/16/1 228/13/1
f 229/23/1 230/31/1 231/32/1 232/24/1
f 233/31/1 234/4/1 235/30/1 236/32/1
f 237/4/1 238/3/1 239/29/1 240/30/1
f 241/3/1 242/6/1 243/15/1 244/29/1
f 245/28/1 246/33/1 247/31/1 248/23/1
f 249/33/1 250/1/1 251/4/1 252/31/1
f 253/1/1 254/2/1 255/3/1 256/4/1
f 257/2/1 258/5/1 259/6/1 260/3/1
f 261/7/1 262/8/1 263/9/1 264/10/1
f 265/8/1 266/11/1 267/12/1 268/9/1
f 269/6/1 270/13/1 271/14/1 272/15/1
f 273/13/1 274/16/1 275/17/1 276/14/1
f 277/6/1 278/13/1 279/14/1 280/15/1
f 281/13/1 282/16/1 283/17/1 284/14/1
f 285/18/1 286/19/1 287/8/1 288/7/1
f 289/19/1 290/20/1 291/11/1 292/8/1
f 293/5/1 294/25/1 295/13/1 296/6/1
f 297/25/1 298/26/1 299/16/1 300/13/1
f 301/13/1 302/16/1 303/17/1 304/14/1
f 305/23/1 306/21/1 307/27/1 308/28/1
f 309/21/1 310/11/1 311/20/1 312/27/1
f 313/5/1 314/25/1 315/13/1 316/6/1
f 317/25/1 318/26/1 319/16/1 320/13/1
f 321/7/1 322/35/1 323/39/1 324/18/1
f 325/35/1 326/34/1 327/38/1 328/39/1
f 329/5/1 330/25/1 331/13/1 332/6/1
f 333/25/1 334/26/1 335/16/1 336/13/1
f 337/24/1 338/22/1 339/21/1 340/23/1
f 341/22/1 342/12/1 343/11/1 344/21/1
f 345/10/1 346/36/1 347/35/1 348/7/1
f 349/36/1 350/37/1 351/34/1 352/35/1
f 353/7/1 354/8/1 355/9/1 356/10/1
f 357/8/1 358/11/1 359/12/1 360/9/1
f 361/4/1 362/3/1 363/29/1 364/30/1
f 365/3/1 366/6/1 367/15/1 368/29/1
f 369/18/1 370/19/1 371/8/1 372/7/1
f 373/19/1 374/20/1 375/11/1 376/8/1
f 377/1/1 378/2/1 379/3/1 380/4/1
f 381/2/1 382/5/1 383/6/1 384/3/1
f 385/11/1 386/8/1 387/19/1 388/20/1
f 389/8/1 390/7/1 391/18/1 392/19/1
f 393/12/1 394/9/1 395/8/1 396/11/1
f 397/9/1 398/10/1 399/7/1 400/8/1

