# Tiled2Unity generated file. Do not modify by hand.
# Wavefront file for 'TutorialLevel_mesh_0012.obj'

# Vertices (Count = 24)
v -120.8889 -40.88889 0
v -122.6667 -40.88889 0
v -122.6667 -39.11111 0
v -120.8889 -39.11111 0
v -122.6667 -40.88889 0
v -124.4444 -40.88889 0
v -124.4444 -39.11111 0
v -122.6667 -39.11111 0
v -124.4444 -40.88889 0
v -126.2222 -40.88889 0
v -126.2222 -39.11111 0
v -124.4444 -39.11111 0
v -126.2222 -40.88889 0
v -128 -40.88889 0
v -128 -39.11111 0
v -126.2222 -39.11111 0
v -128 -40.88889 0
v -129.7778 -40.88889 0
v -129.7778 -39.11111 0
v -128 -39.11111 0
v -129.7778 -40.88889 0
v -131.5556 -40.88889 0
v -131.5556 -39.11111 0
v -129.7778 -39.11111 0

# Texture cooridinates (Count = 8)
vt 0.7857143 0.8666667
vt 0.8571429 0.8666667
vt 0.8571429 0.9333333
vt 0.7857143 0.9333333
vt 0.9285714 0.8666667
vt 0.9285714 0.9333333
vt 1 0.8666667
vt 1 0.9333333

# Normal
vn 0 0 -1

# Mesh description
g TutorialLevel_mesh_0012

# Faces
f 1/1/1 2/2/1 3/3/1 4/4/1
f 5/2/1 6/5/1 7/6/1 8/3/1
f 9/5/1 10/7/1 11/8/1 12/6/1
f 13/1/1 14/2/1 15/3/1 16/4/1
f 17/2/1 18/5/1 19/6/1 20/3/1
f 21/5/1 22/7/1 23/8/1 24/6/1

