# Tiled2Unity generated file. Do not modify by hand.
# Wavefront file for 'TutorialLevel_mesh_0016.obj'

# Vertices (Count = 96)
v -33.77778 -1.777778 0
v -35.55556 -1.777778 0
v -35.55556 0 0
v -33.77778 0 0
v -35.55556 -1.777778 0
v -37.33333 -1.777778 0
v -37.33333 0 0
v -35.55556 0 0
v -33.77778 -3.555556 0
v -35.55556 -3.555556 0
v -35.55556 -1.777778 0
v -33.77778 -1.777778 0
v -35.55556 -3.555556 0
v -37.33333 -3.555556 0
v -37.33333 -1.777778 0
v -35.55556 -1.777778 0
v -88.88889 -37.33333 0
v -90.66666 -37.33333 0
v -90.66666 -35.55556 0
v -88.88889 -35.55556 0
v -90.66666 -37.33333 0
v -92.44444 -37.33333 0
v -92.44444 -35.55556 0
v -90.66666 -35.55556 0
v -88.88889 -39.11111 0
v -90.66666 -39.11111 0
v -90.66666 -37.33333 0
v -88.88889 -37.33333 0
v -90.66666 -39.11111 0
v -92.44444 -39.11111 0
v -92.44444 -37.33333 0
v -90.66666 -37.33333 0
v -65.77778 -40.88889 0
v -67.55556 -40.88889 0
v -67.55556 -39.11111 0
v -65.77778 -39.11111 0
v -67.55556 -40.88889 0
v -69.33334 -40.88889 0
v -69.33334 -39.11111 0
v -67.55556 -39.11111 0
v -65.77778 -42.66667 0
v -67.55556 -42.66667 0
v -67.55556 -40.88889 0
v -65.77778 -40.88889 0
v -67.55556 -42.66667 0
v -69.33334 -42.66667 0
v -69.33334 -40.88889 0
v -67.55556 -40.88889 0
v -122.6667 -53.33333 0
v -124.4444 -53.33333 0
v -124.4444 -51.55556 0
v -122.6667 -51.55556 0
v -124.4444 -53.33333 0
v -126.2222 -53.33333 0
v -126.2222 -51.55556 0
v -124.4444 -51.55556 0
v -183.1111 -53.33333 0
v -184.8889 -53.33333 0
v -184.8889 -51.55556 0
v -183.1111 -51.55556 0
v -184.8889 -53.33333 0
v -186.6667 -53.33333 0
v -186.6667 -51.55556 0
v -184.8889 -51.55556 0
v -122.6667 -55.11111 0
v -124.4444 -55.11111 0
v -124.4444 -53.33333 0
v -122.6667 -53.33333 0
v -124.4444 -55.11111 0
v -126.2222 -55.11111 0
v -126.2222 -53.33333 0
v -124.4444 -53.33333 0
v -183.1111 -55.11111 0
v -184.8889 -55.11111 0
v -184.8889 -53.33333 0
v -183.1111 -53.33333 0
v -184.8889 -55.11111 0
v -186.6667 -55.11111 0
v -186.6667 -53.33333 0
v -184.8889 -53.33333 0
v -165.3333 -83.55556 0
v -167.1111 -83.55556 0
v -167.1111 -81.77778 0
v -165.3333 -81.77778 0
v -167.1111 -83.55556 0
v -168.8889 -83.55556 0
v -168.8889 -81.77778 0
v -167.1111 -81.77778 0
v -165.3333 -85.33334 0
v -167.1111 -85.33334 0
v -167.1111 -83.55556 0
v -165.3333 -83.55556 0
v -167.1111 -85.33334 0
v -168.8889 -85.33334 0
v -168.8889 -83.55556 0
v -167.1111 -83.55556 0

# Texture cooridinates (Count = 33)
vt 0.7333333 0.5
vt 0.8 0.5
vt 0.8 1
vt 0.7333333 1
vt 0.8666667 0.5
vt 0.8666667 1
vt 0.7333333 0
vt 0.8 0
vt 0.8666667 0
vt 0.2666667 0
vt 0.2666667 0.5
vt 0.2 0.5
vt 0.2 0
vt 0.2666667 1
vt 0.2 1
vt 0.3333333 0
vt 0.3333333 0.5
vt 0.3333333 1
vt 0.6 0.5
vt 0.5333334 0.5
vt 0.5333334 0
vt 0.6 0
vt 0.4666667 0.5
vt 0.4666667 0
vt 0.6 1
vt 0.5333334 1
vt 0.4666667 1
vt 0.06666667 0.5
vt 0.1333333 0.5
vt 0.1333333 1
vt 0.06666667 1
vt 0.06666667 0
vt 0.1333333 0

# Normal
vn 0 0 -1

# Mesh description
g TutorialLevel_mesh_0016

# Faces
f 1/1/1 2/2/1 3/3/1 4/4/1
f 5/2/1 6/5/1 7/6/1 8/3/1
f 9/7/1 10/8/1 11/2/1 12/1/1
f 13/8/1 14/9/1 15/5/1 16/2/1
f 17/10/1 18/11/1 19/12/1 20/13/1
f 21/11/1 22/14/1 23/15/1 24/12/1
f 25/16/1 26/17/1 27/11/1 28/10/1
f 29/17/1 30/18/1 31/14/1 32/11/1
f 33/19/1 34/20/1 35/21/1 36/22/1
f 37/20/1 38/23/1 39/24/1 40/21/1
f 41/25/1 42/26/1 43/20/1 44/19/1
f 45/26/1 46/27/1 47/23/1 48/20/1
f 49/28/1 50/29/1 51/30/1 52/31/1
f 53/29/1 54/12/1 55/15/1 56/30/1
f 57/12/1 58/11/1 59/10/1 60/13/1
f 61/11/1 62/17/1 63/16/1 64/10/1
f 65/32/1 66/33/1 67/29/1 68/28/1
f 69/33/1 70/13/1 71/12/1 72/29/1
f 73/15/1 74/14/1 75/11/1 76/12/1
f 77/14/1 78/18/1 79/17/1 80/11/1
f 81/28/1 82/29/1 83/30/1 84/31/1
f 85/29/1 86/12/1 87/15/1 88/30/1
f 89/32/1 90/33/1 91/29/1 92/28/1
f 93/33/1 94/13/1 95/12/1 96/29/1

