# Tiled2Unity generated file. Do not modify by hand.
# Wavefront file for 'TutorialLevel_mesh_0009.obj'

# Vertices (Count = 260)
v -94.22222 -1.777778 0
v -96 -1.777778 0
v -96 0 0
v -94.22222 0 0
v -96 -1.777778 0
v -97.77778 -1.777778 0
v -97.77778 0 0
v -96 0 0
v -56.88889 -3.555556 0
v -58.66667 -3.555556 0
v -58.66667 -1.777778 0
v -56.88889 -1.777778 0
v -58.66667 -3.555556 0
v -60.44445 -3.555556 0
v -60.44445 -1.777778 0
v -58.66667 -1.777778 0
v -94.22222 -3.555556 0
v -96 -3.555556 0
v -96 -1.777778 0
v -94.22222 -1.777778 0
v -96 -3.555556 0
v -97.77778 -3.555556 0
v -97.77778 -1.777778 0
v -96 -1.777778 0
v -122.6667 -3.555556 0
v -124.4444 -3.555556 0
v -124.4444 -1.777778 0
v -122.6667 -1.777778 0
v -124.4444 -3.555556 0
v -126.2222 -3.555556 0
v -126.2222 -1.777778 0
v -124.4444 -1.777778 0
v -56.88889 -5.333333 0
v -58.66667 -5.333333 0
v -58.66667 -3.555556 0
v -56.88889 -3.555556 0
v -58.66667 -5.333333 0
v -60.44445 -5.333333 0
v -60.44445 -3.555556 0
v -58.66667 -3.555556 0
v -122.6667 -5.333333 0
v -124.4444 -5.333333 0
v -124.4444 -3.555556 0
v -122.6667 -3.555556 0
v -124.4444 -5.333333 0
v -126.2222 -5.333333 0
v -126.2222 -3.555556 0
v -124.4444 -3.555556 0
v -206.2222 -7.111111 0
v -208 -7.111111 0
v -208 -5.333333 0
v -206.2222 -5.333333 0
v -208 -7.111111 0
v -209.7778 -7.111111 0
v -209.7778 -5.333333 0
v -208 -5.333333 0
v -206.2222 -8.888889 0
v -208 -8.888889 0
v -208 -7.111111 0
v -206.2222 -7.111111 0
v -208 -8.888889 0
v -209.7778 -8.888889 0
v -209.7778 -7.111111 0
v -208 -7.111111 0
v -92.44444 -12.44444 0
v -94.22222 -12.44444 0
v -94.22222 -10.66667 0
v -92.44444 -10.66667 0
v -94.22222 -12.44444 0
v -96 -12.44444 0
v -96 -10.66667 0
v -94.22222 -10.66667 0
v -96 -12.44444 0
v -97.77778 -12.44444 0
v -97.77778 -10.66667 0
v -96 -10.66667 0
v -92.44444 -14.22222 0
v -94.22222 -14.22222 0
v -94.22222 -12.44444 0
v -92.44444 -12.44444 0
v -94.22222 -14.22222 0
v -96 -14.22222 0
v -96 -12.44444 0
v -94.22222 -12.44444 0
v -96 -14.22222 0
v -97.77778 -14.22222 0
v -97.77778 -12.44444 0
v -96 -12.44444 0
v -106.6667 -28.44444 0
v -108.4444 -28.44444 0
v -108.4444 -26.66667 0
v -106.6667 -26.66667 0
v -108.4444 -28.44444 0
v -110.2222 -28.44444 0
v -110.2222 -26.66667 0
v -108.4444 -26.66667 0
v -103.1111 -30.22222 0
v -104.8889 -30.22222 0
v -104.8889 -28.44444 0
v -103.1111 -28.44444 0
v -104.8889 -30.22222 0
v -106.6667 -30.22222 0
v -106.6667 -28.44444 0
v -104.8889 -28.44444 0
v -106.6667 -30.22222 0
v -108.4444 -30.22222 0
v -108.4444 -28.44444 0
v -106.6667 -28.44444 0
v -108.4444 -30.22222 0
v -110.2222 -30.22222 0
v -110.2222 -28.44444 0
v -108.4444 -28.44444 0
v -103.1111 -32 0
v -104.8889 -32 0
v -104.8889 -30.22222 0
v -103.1111 -30.22222 0
v -104.8889 -32 0
v -106.6667 -32 0
v -106.6667 -30.22222 0
v -104.8889 -30.22222 0
v -94.22222 -35.55556 0
v -96 -35.55556 0
v -96 -33.77778 0
v -94.22222 -33.77778 0
v -96 -35.55556 0
v -97.77778 -35.55556 0
v -97.77778 -33.77778 0
v -96 -33.77778 0
v -94.22222 -37.33333 0
v -96 -37.33333 0
v -96 -35.55556 0
v -94.22222 -35.55556 0
v -96 -37.33333 0
v -97.77778 -37.33333 0
v -97.77778 -35.55556 0
v -96 -35.55556 0
v -117.3333 -37.33333 0
v -119.1111 -37.33333 0
v -119.1111 -35.55556 0
v -117.3333 -35.55556 0
v -184.8889 -40.88889 0
v -186.6667 -40.88889 0
v -186.6667 -39.11111 0
v -184.8889 -39.11111 0
v -186.6667 -40.88889 0
v -188.4444 -40.88889 0
v -188.4444 -39.11111 0
v -186.6667 -39.11111 0
v -184.8889 -42.66667 0
v -186.6667 -42.66667 0
v -186.6667 -40.88889 0
v -184.8889 -40.88889 0
v -186.6667 -42.66667 0
v -188.4444 -42.66667 0
v -188.4444 -40.88889 0
v -186.6667 -40.88889 0
v -94.22222 -53.33333 0
v -96 -53.33333 0
v -96 -51.55556 0
v -94.22222 -51.55556 0
v -96 -53.33333 0
v -97.77778 -53.33333 0
v -97.77778 -51.55556 0
v -96 -51.55556 0
v -94.22222 -55.11111 0
v -96 -55.11111 0
v -96 -53.33333 0
v -94.22222 -53.33333 0
v -96 -55.11111 0
v -97.77778 -55.11111 0
v -97.77778 -53.33333 0
v -96 -53.33333 0
v -33.77778 -62.22222 0
v -35.55556 -62.22222 0
v -35.55556 -60.44445 0
v -33.77778 -60.44445 0
v -44.44445 -67.55556 0
v -46.22222 -67.55556 0
v -46.22222 -65.77778 0
v -44.44445 -65.77778 0
v -46.22222 -67.55556 0
v -48 -67.55556 0
v -48 -65.77778 0
v -46.22222 -65.77778 0
v -44.44445 -69.33334 0
v -46.22222 -69.33334 0
v -46.22222 -67.55556 0
v -44.44445 -67.55556 0
v -46.22222 -69.33334 0
v -48 -69.33334 0
v -48 -67.55556 0
v -46.22222 -67.55556 0
v -76.44444 -71.11111 0
v -78.22222 -71.11111 0
v -78.22222 -69.33334 0
v -76.44444 -69.33334 0
v -78.22222 -71.11111 0
v -80 -71.11111 0
v -80 -69.33334 0
v -78.22222 -69.33334 0
v -76.44444 -72.88889 0
v -78.22222 -72.88889 0
v -78.22222 -71.11111 0
v -76.44444 -71.11111 0
v -78.22222 -72.88889 0
v -80 -72.88889 0
v -80 -71.11111 0
v -78.22222 -71.11111 0
v -44.44445 -76.44444 0
v -46.22222 -76.44444 0
v -46.22222 -74.66666 0
v -44.44445 -74.66666 0
v -26.66667 -80 0
v -28.44444 -80 0
v -28.44444 -78.22222 0
v -26.66667 -78.22222 0
v -28.44444 -80 0
v -30.22222 -80 0
v -30.22222 -78.22222 0
v -28.44444 -78.22222 0
v -21.33333 -81.77778 0
v -23.11111 -81.77778 0
v -23.11111 -80 0
v -21.33333 -80 0
v -23.11111 -81.77778 0
v -24.88889 -81.77778 0
v -24.88889 -80 0
v -23.11111 -80 0
v -26.66667 -81.77778 0
v -28.44444 -81.77778 0
v -28.44444 -80 0
v -26.66667 -80 0
v -28.44444 -81.77778 0
v -30.22222 -81.77778 0
v -30.22222 -80 0
v -28.44444 -80 0
v -21.33333 -83.55556 0
v -23.11111 -83.55556 0
v -23.11111 -81.77778 0
v -21.33333 -81.77778 0
v -23.11111 -83.55556 0
v -24.88889 -83.55556 0
v -24.88889 -81.77778 0
v -23.11111 -81.77778 0
v -259.5556 -83.55556 0
v -261.3333 -83.55556 0
v -261.3333 -81.77778 0
v -259.5556 -81.77778 0
v -261.3333 -83.55556 0
v -263.1111 -83.55556 0
v -263.1111 -81.77778 0
v -261.3333 -81.77778 0
v -259.5556 -85.33334 0
v -261.3333 -85.33334 0
v -261.3333 -83.55556 0
v -259.5556 -83.55556 0
v -261.3333 -85.33334 0
v -263.1111 -85.33334 0
v -263.1111 -83.55556 0
v -261.3333 -83.55556 0

# Texture cooridinates (Count = 44)
vt 0.7333333 0.5
vt 0.8 0.5
vt 0.8 1
vt 0.7333333 1
vt 0.8666667 0.5
vt 0.8666667 1
vt 0.9333333 0.5
vt 0.9333333 1
vt 1 0.5
vt 1 1
vt 0.7333333 0
vt 0.8 0
vt 0.8666667 0
vt 0.9333333 0
vt 1 0
vt 0.4666667 0.5
vt 0.5333334 0.5
vt 0.5333334 1
vt 0.4666667 1
vt 0.6 0.5
vt 0.6 1
vt 0.4666667 0
vt 0.5333334 0
vt 0.6 0
vt 0.2 0.5
vt 0.1333333 0.5
vt 0.1333333 1
vt 0.2 1
vt 0.06666667 0.5
vt 0.06666667 1
vt 0.2 0
vt 0.1333333 0
vt 0.06666667 0
vt 0.3333333 0.5
vt 0.4 0.5
vt 0.4 1
vt 0.3333333 1
vt 0.3333333 0
vt 0.4 0
vt 0 0
vt 0 0.5
vt 0.2666667 1
vt 0.2666667 0.5
vt 0.2666667 0

# Normal
vn 0 0 -1

# Mesh description
g TutorialLevel_mesh_0009

# Faces
f 1/1/1 2/2/1 3/3/1 4/4/1
f 5/2/1 6/5/1 7/6/1 8/3/1
f 9/5/1 10/7/1 11/8/1 12/6/1
f 13/7/1 14/9/1 15/10/1 16/8/1
f 17/11/1 18/12/1 19/2/1 20/1/1
f 21/12/1 22/13/1 23/5/1 24/2/1
f 25/9/1 26/7/1 27/14/1 28/15/1
f 29/7/1 30/5/1 31/13/1 32/14/1
f 33/13/1 34/14/1 35/7/1 36/5/1
f 37/14/1 38/15/1 39/9/1 40/7/1
f 41/10/1 42/8/1 43/7/1 44/9/1
f 45/8/1 46/6/1 47/5/1 48/7/1
f 49/16/1 50/17/1 51/18/1 52/19/1
f 53/17/1 54/20/1 55/21/1 56/18/1
f 57/22/1 58/23/1 59/17/1 60/16/1
f 61/23/1 62/24/1 63/20/1 64/17/1
f 65/5/1 66/7/1 67/8/1 68/6/1
f 69/5/1 70/7/1 71/8/1 72/6/1
f 73/7/1 74/9/1 75/10/1 76/8/1
f 77/13/1 78/14/1 79/7/1 80/5/1
f 81/13/1 82/14/1 83/7/1 84/5/1
f 85/14/1 86/15/1 87/9/1 88/7/1
f 89/5/1 90/7/1 91/8/1 92/6/1
f 93/7/1 94/9/1 95/10/1 96/8/1
f 97/25/1 98/26/1 99/27/1 100/28/1
f 101/26/1 102/29/1 103/30/1 104/27/1
f 105/13/1 106/14/1 107/7/1 108/5/1
f 109/14/1 110/15/1 111/9/1 112/7/1
f 113/31/1 114/32/1 115/26/1 116/25/1
f 117/32/1 118/33/1 119/29/1 120/26/1
f 121/34/1 122/35/1 123/36/1 124/37/1
f 125/35/1 126/16/1 127/19/1 128/36/1
f 129/38/1 130/39/1 131/35/1 132/34/1
f 133/39/1 134/22/1 135/16/1 136/35/1
f 137/40/1 138/33/1 139/29/1 140/41/1
f 141/29/1 142/26/1 143/27/1 144/30/1
f 145/26/1 146/25/1 147/28/1 148/27/1
f 149/33/1 150/32/1 151/26/1 152/29/1
f 153/32/1 154/31/1 155/25/1 156/26/1
f 157/34/1 158/35/1 159/36/1 160/37/1
f 161/35/1 162/16/1 163/19/1 164/36/1
f 165/38/1 166/39/1 167/35/1 168/34/1
f 169/39/1 170/22/1 171/16/1 172/35/1
f 173/33/1 174/29/1 175/41/1 176/40/1
f 177/5/1 178/7/1 179/8/1 180/6/1
f 181/7/1 182/9/1 183/10/1 184/8/1
f 185/13/1 186/14/1 187/7/1 188/5/1
f 189/14/1 190/15/1 191/9/1 192/7/1
f 193/42/1 194/43/1 195/25/1 196/28/1
f 197/43/1 198/44/1 199/31/1 200/25/1
f 201/37/1 202/34/1 203/43/1 204/42/1
f 205/34/1 206/38/1 207/44/1 208/43/1
f 209/16/1 210/17/1 211/18/1 212/19/1
f 213/16/1 214/17/1 215/18/1 216/19/1
f 217/17/1 218/20/1 219/21/1 220/18/1
f 221/34/1 222/35/1 223/36/1 224/37/1
f 225/35/1 226/16/1 227/19/1 228/36/1
f 229/22/1 230/23/1 231/17/1 232/16/1
f 233/23/1 234/24/1 235/20/1 236/17/1
f 237/38/1 238/39/1 239/35/1 240/34/1
f 241/39/1 242/22/1 243/16/1 244/35/1
f 245/16/1 246/35/1 247/36/1 248/19/1
f 249/35/1 250/34/1 251/37/1 252/36/1
f 253/22/1 254/39/1 255/35/1 256/16/1
f 257/39/1 258/38/1 259/34/1 260/35/1

